<svg xmlns="http://www.w3.org/2000/svg" viewBox="0 0 96 96"><defs><linearGradient id="m" x1="0" y1="0" x2="1" y2="1"><stop stop-color="#6c716b"/><stop offset="1" stop-color="#30342f"/></linearGradient><linearGradient id="c" x1="0" y1="0" x2="1" y2="1"><stop stop-color="#75483a"/><stop offset="1" stop-color="#39221d"/></linearGradient><filter id="s"><feDropShadow dx="0" dy="3" stdDeviation="2" flood-opacity=".5"/></filter></defs><ellipse cx="48" cy="86" rx="24" ry="7" fill="#111" opacity=".4"/><g filter="url(#s)"><path d="M34 51h28l9 29H25z" fill="url(#c)" stroke="#251a17" stroke-width="3"/><circle cx="48" cy="34" r="14" fill="#cda77f"/><path d="M32 32q16-20 32 0v10H32z" fill="url(#m)" stroke="#252924" stroke-width="3"/><path d="M28 50l-9 31M67 49l14 29" stroke="#4b4035" stroke-width="6" stroke-linecap="round"/><path d="M22 51h18v27H19q-7-13 3-27z" fill="url(#m)" stroke="#242824" stroke-width="3"/><path d="M26 55v19M38 58l-13 13" stroke="#a09a82" stroke-width="2" opacity=".55"/><path d="M79 77l1-38" stroke="#332a23" stroke-width="5"/><path d="M74 39h13l-6-11z" fill="#b59a64"/><path d="M38 80l-4 11M58 80l5 11" stroke="#2d241f" stroke-width="7" stroke-linecap="round"/></g></svg>