<svg xmlns="http://www.w3.org/2000/svg" viewBox="0 0 128 128"><defs><linearGradient id="wood" x1="0" y1="0" x2="0" y2="1"><stop stop-color="#9a7448"/><stop offset="1" stop-color="#4d3420"/></linearGradient><linearGradient id="cloth" x1="0" y1="0" x2="1" y2="1"><stop stop-color="#c84335"/><stop offset="1" stop-color="#6f1918"/></linearGradient><filter id="s"><feDropShadow dx="0" dy="4" stdDeviation="3" flood-opacity=".45"/></filter></defs><ellipse cx="64" cy="111" rx="43" ry="10" fill="#172019" opacity=".45"/><g filter="url(#s)"><path d="M24 80l7-36 9 10 8-16 9 15 8-20 9 19 11-16 7 18 12-10 3 36z" fill="url(#wood)" stroke="#332219" stroke-width="4"/><rect x="28" y="75" width="72" height="28" rx="8" fill="#6f6846" stroke="#342d21" stroke-width="4"/><path d="M33 76h62M40 84v16M54 82v19M71 82v19M86 84v16" stroke="#a79a68" stroke-width="3" opacity=".7"/><g transform="translate(45 53)"><rect x="-7" y="14" width="14" height="29" rx="5" fill="#d7c09a"/><circle cy="8" r="10" fill="#dfbd91"/><path d="M-11 6q11-17 22 0v6h-22z" fill="url(#cloth)"/><path d="M8 24q17-18 21 0q-3 17-21 0z" fill="none" stroke="#432d1d" stroke-width="3"/><path d="M13 24h22" stroke="#d7b56d" stroke-width="2"/></g><g transform="translate(78 58)"><rect x="-7" y="13" width="14" height="27" rx="5" fill="#cdb58d"/><circle cy="7" r="9" fill="#d9b689"/><path d="M-10 4q10-15 20 0v6h-20z" fill="url(#cloth)"/><path d="M8 22q15-16 19 0q-3 15-19 0z" fill="none" stroke="#432d1d" stroke-width="3"/><path d="M12 22h20" stroke="#d7b56d" stroke-width="2"/></g><path d="M22 79h84" stroke="#d3b476" stroke-width="3" opacity=".6"/></g></svg>