<svg xmlns="http://www.w3.org/2000/svg" viewBox="0 0 128 128"><defs><linearGradient id="w" x1="0" y1="0" x2="1" y2="1"><stop stop-color="#b28754"/><stop offset="1" stop-color="#513822"/></linearGradient><filter id="s"><feDropShadow dx="0" dy="4" stdDeviation="3" flood-opacity=".45"/></filter></defs><ellipse cx="64" cy="108" rx="44" ry="10" fill="#172019" opacity=".45"/><g filter="url(#s)"><circle cx="40" cy="91" r="17" fill="#3b2c22" stroke="#9d7b50" stroke-width="5"/><circle cx="88" cy="91" r="17" fill="#3b2c22" stroke="#9d7b50" stroke-width="5"/><circle cx="40" cy="91" r="5" fill="#b38c58"/><circle cx="88" cy="91" r="5" fill="#b38c58"/><rect x="29" y="69" width="70" height="24" rx="7" fill="url(#w)" stroke="#36251b" stroke-width="4"/><g transform="translate(62 65)"><rect x="-34" y="-8" width="68" height="10" rx="5" fill="#4c3827" transform="rotate(-4)"/><path d="M17-11l37-26M18-5l43 8" stroke="#69472e" stroke-width="7" stroke-linecap="round"/><path d="M53-37q18 20 8 40" fill="none" stroke="#30251d" stroke-width="5"/><path d="M-8-5h64" stroke="#d2b274" stroke-width="3"/><path d="M54-6l30 0-18-6v12z" fill="#2f2c28"/></g><path d="M32 70l10-18h43l13 18" fill="#785638" stroke="#3a281c" stroke-width="4"/><circle cx="64" cy="60" r="8" fill="#c6a26f"/></g></svg>